<mxfile host="app.diagrams.net" agent="Mozilla/5.0 (X11; Linux x86_64; rv:139.0) Gecko/20100101 Firefox/139.0" version="28.0.7">
  <diagram name="Page-1" id="y-Aj4uXFdI7A7Q_JRrGi">
    <mxGraphModel dx="575" dy="548" grid="1" gridSize="10" guides="1" tooltips="1" connect="1" arrows="1" fold="1" page="1" pageScale="1" pageWidth="827" pageHeight="1169" math="0" shadow="0">
      <root>
        <mxCell id="0" />
        <mxCell id="1" parent="0" />
        <mxCell id="XvVVUCHbeEsw_wZZwnou-11" value="" style="edgeStyle=none;orthogonalLoop=1;jettySize=auto;html=1;rounded=0;endSize=3;strokeColor=light-dark(#000000,#3333FF);" edge="1" parent="1">
          <mxGeometry width="100" relative="1" as="geometry">
            <mxPoint x="191" y="480" as="sourcePoint" />
            <mxPoint x="241" y="440" as="targetPoint" />
            <Array as="points" />
          </mxGeometry>
        </mxCell>
        <mxCell id="XvVVUCHbeEsw_wZZwnou-7" value="" style="group" vertex="1" connectable="0" parent="1">
          <mxGeometry x="290" y="378" width="172" height="182" as="geometry" />
        </mxCell>
        <mxCell id="2y2FeeUZRfBEqoavbDNg-1" value="" style="endArrow=classicThin;html=1;rounded=0;startArrow=none;startFill=0;endFill=1;endSize=3;" parent="XvVVUCHbeEsw_wZZwnou-7" edge="1">
          <mxGeometry width="50" height="50" relative="1" as="geometry">
            <mxPoint x="70" y="102" as="sourcePoint" />
            <mxPoint x="70" y="22" as="targetPoint" />
          </mxGeometry>
        </mxCell>
        <mxCell id="2y2FeeUZRfBEqoavbDNg-2" value="" style="edgeStyle=none;orthogonalLoop=1;jettySize=auto;html=1;rounded=0;endSize=3;fillColor=#e51400;strokeColor=light-dark(#000000,#FF3333);" parent="XvVVUCHbeEsw_wZZwnou-7" edge="1">
          <mxGeometry width="100" relative="1" as="geometry">
            <mxPoint x="70" y="102" as="sourcePoint" />
            <mxPoint x="150" y="102" as="targetPoint" />
            <Array as="points" />
          </mxGeometry>
        </mxCell>
        <mxCell id="2y2FeeUZRfBEqoavbDNg-3" value="" style="edgeStyle=none;orthogonalLoop=1;jettySize=auto;html=1;rounded=0;endSize=3;strokeColor=light-dark(#000000,#3333FF);" parent="XvVVUCHbeEsw_wZZwnou-7" edge="1">
          <mxGeometry width="100" relative="1" as="geometry">
            <mxPoint x="70" y="102" as="sourcePoint" />
            <mxPoint x="20" y="142" as="targetPoint" />
            <Array as="points" />
          </mxGeometry>
        </mxCell>
        <mxCell id="XvVVUCHbeEsw_wZZwnou-2" value="&lt;font face=&quot;Times New Roman&quot;&gt;Right Handed (Y - Up)&lt;/font&gt;" style="text;html=1;align=center;verticalAlign=middle;whiteSpace=wrap;rounded=0;" vertex="1" parent="XvVVUCHbeEsw_wZZwnou-7">
          <mxGeometry x="44" y="152" width="80" height="30" as="geometry" />
        </mxCell>
        <mxCell id="XvVVUCHbeEsw_wZZwnou-3" value="&lt;font face=&quot;Times New Roman&quot; style=&quot;font-size: 9px;&quot;&gt;y&lt;/font&gt;" style="text;html=1;align=center;verticalAlign=middle;resizable=0;points=[];autosize=1;strokeColor=none;fillColor=none;" vertex="1" parent="XvVVUCHbeEsw_wZZwnou-7">
          <mxGeometry x="55" width="30" height="30" as="geometry" />
        </mxCell>
        <mxCell id="XvVVUCHbeEsw_wZZwnou-4" value="&lt;font face=&quot;Times New Roman&quot;&gt;x&lt;/font&gt;" style="text;html=1;align=center;verticalAlign=middle;resizable=0;points=[];autosize=1;strokeColor=none;fillColor=none;fontColor=light-dark(#000000,#FF3333);" vertex="1" parent="XvVVUCHbeEsw_wZZwnou-7">
          <mxGeometry x="142" y="86" width="30" height="30" as="geometry" />
        </mxCell>
        <mxCell id="XvVVUCHbeEsw_wZZwnou-5" value="&lt;font style=&quot;font-size: 9px; color: light-dark(rgb(0, 0, 0), rgb(51, 51, 255));&quot; face=&quot;Times New Roman&quot;&gt;Z&lt;/font&gt;" style="text;html=1;align=center;verticalAlign=middle;resizable=0;points=[];autosize=1;strokeColor=none;fillColor=none;fontColor=light-dark(#000000,#FF3333);" vertex="1" parent="XvVVUCHbeEsw_wZZwnou-7">
          <mxGeometry y="132" width="30" height="30" as="geometry" />
        </mxCell>
        <mxCell id="XvVVUCHbeEsw_wZZwnou-9" value="" style="endArrow=classicThin;html=1;rounded=0;startArrow=none;startFill=0;endFill=1;endSize=3;" edge="1" parent="1">
          <mxGeometry width="50" height="50" relative="1" as="geometry">
            <mxPoint x="190" y="480" as="sourcePoint" />
            <mxPoint x="190" y="400" as="targetPoint" />
          </mxGeometry>
        </mxCell>
        <mxCell id="XvVVUCHbeEsw_wZZwnou-10" value="" style="edgeStyle=none;orthogonalLoop=1;jettySize=auto;html=1;rounded=0;endSize=3;fillColor=#e51400;strokeColor=light-dark(#000000,#FF3333);" edge="1" parent="1">
          <mxGeometry width="100" relative="1" as="geometry">
            <mxPoint x="190" y="480" as="sourcePoint" />
            <mxPoint x="270" y="480" as="targetPoint" />
            <Array as="points" />
          </mxGeometry>
        </mxCell>
        <mxCell id="XvVVUCHbeEsw_wZZwnou-13" value="&lt;font face=&quot;Times New Roman&quot; style=&quot;font-size: 9px;&quot;&gt;y&lt;/font&gt;" style="text;html=1;align=center;verticalAlign=middle;resizable=0;points=[];autosize=1;strokeColor=none;fillColor=none;" vertex="1" parent="1">
          <mxGeometry x="175" y="378" width="30" height="30" as="geometry" />
        </mxCell>
        <mxCell id="XvVVUCHbeEsw_wZZwnou-14" value="&lt;font face=&quot;Times New Roman&quot;&gt;x&lt;/font&gt;" style="text;html=1;align=center;verticalAlign=middle;resizable=0;points=[];autosize=1;strokeColor=none;fillColor=none;fontColor=light-dark(#000000,#FF3333);" vertex="1" parent="1">
          <mxGeometry x="262" y="464" width="30" height="30" as="geometry" />
        </mxCell>
        <mxCell id="XvVVUCHbeEsw_wZZwnou-15" value="&lt;font style=&quot;font-size: 9px; color: light-dark(rgb(0, 0, 0), rgb(51, 51, 255));&quot; face=&quot;Times New Roman&quot;&gt;Z&lt;/font&gt;" style="text;html=1;align=center;verticalAlign=middle;resizable=0;points=[];autosize=1;strokeColor=none;fillColor=none;fontColor=light-dark(#000000,#FF3333);" vertex="1" parent="1">
          <mxGeometry x="232" y="420" width="30" height="30" as="geometry" />
        </mxCell>
        <mxCell id="XvVVUCHbeEsw_wZZwnou-1" value="&lt;font face=&quot;Times New Roman&quot;&gt;Left Handed (Y - Up)&lt;/font&gt;" style="text;html=1;align=center;verticalAlign=middle;whiteSpace=wrap;rounded=0;" vertex="1" parent="1">
          <mxGeometry x="171" y="530" width="70" height="30" as="geometry" />
        </mxCell>
      </root>
    </mxGraphModel>
  </diagram>
</mxfile>
